<svg width="180" height="180" viewBox="0 0 180 180" fill="none" xmlns="http://www.w3.org/2000/svg">
  <rect width="180" height="180" rx="22" fill="#1e40af"/>
  <rect x="18" y="18" width="144" height="144" rx="12" fill="white"/>
  <path d="M90 36C67.2 36 48 55.2 48 78s19.2 42 42 42 42-19.2 42-42-19.2-42-42-42zm0 60c-9.9 0-18-8.1-18-18s8.1-18 18-18 18 8.1 18 18-8.1 18-18 18z" fill="#1e40af"/>
  <path d="M90 48c-16.6 0-30 13.4-30 30s13.4 30 30 30 30-13.4 30-30-13.4-30-30-30zm0 36c-3.3 0-6-2.7-6-6s2.7-6 6-6 6 2.7 6 6-2.7 6-6 6z" fill="#1e40af"/>
  <circle cx="90" cy="78" r="6" fill="#1e40af"/>
</svg> 