<svg width="192" height="192" viewBox="0 0 192 192" fill="none" xmlns="http://www.w3.org/2000/svg">
  <rect width="192" height="192" rx="24" fill="#1e40af"/>
  <rect x="24" y="24" width="144" height="144" rx="16" fill="white"/>
  <path d="M96 48C70.4 48 48 70.4 48 96s22.4 48 48 48 48-22.4 48-48-22.4-48-48-48zm0 80c-17.7 0-32-14.3-32-32s14.3-32 32-32 32 14.3 32 32-14.3 32-32 32z" fill="#1e40af"/>
  <path d="M96 64c-17.7 0-32 14.3-32 32s14.3 32 32 32 32-14.3 32-32-14.3-32-32-32zm0 48c-8.8 0-16-7.2-16-16s7.2-16 16-16 16 7.2 16 16-7.2 16-16 16z" fill="#1e40af"/>
  <circle cx="96" cy="96" r="8" fill="#1e40af"/>
</svg> 